<svg viewBox="0 0 52 36" xmlns="http://www.w3.org/2000/svg"><path d="M37.99 1.092a1.417 1.417 0 00-.629-.88 1.4 1.4 0 00-1.064-.174L1.099 8.398a1.408 1.408 0 00-.874.634c-.197.32-.259.705-.173 1.071l5.733 24.463A1.411 1.411 0 007.48 35.62l35.197-8.36a1.41 1.41 0 00.874-.634c.197-.32.259-.705.173-1.071L37.991 1.092zm.176 13.1l-6.03-3.527 3.853-5.763 2.177 9.29zM3.534 12.61l6.006 3.422L5.71 21.9l-2.175-9.29zm1.711-2.284L33.444 3.63l-11.02 16.487-17.179-9.79zm2.958 22.208L6.602 25.7l5.395-8.267L22.17 23.23a1.406 1.406 0 001.863-.442l6.527-9.765 8.497 4.969 1.601 6.834-32.455 7.708zM50.578.952c.777 0 1.408.635 1.408 1.418 0 .783-.63 1.418-1.408 1.418h-8.85a1.413 1.413 0 01-1.409-1.418c0-.783.63-1.418 1.408-1.418h8.85zM49.09 8.174c.778 0 1.408.635 1.408 1.418 0 .784-.63 1.418-1.408 1.418h-5.875a1.413 1.413 0 01-1.409-1.418c0-.783.63-1.418 1.409-1.418h5.875zm-1.41 7.223c.778 0 1.409.634 1.409 1.417s-.631 1.419-1.409 1.419h-3.055a1.414 1.414 0 01-1.408-1.419c0-.783.63-1.417 1.408-1.417h3.055z" fill="#0097a6" fill-rule="evenodd"/></svg>