<svg xmlns="http://www.w3.org/2000/svg" width="72" height="72" fill="none" opacity=".72"><circle cx="36" cy="36" r="36" fill="#ffe5e8"/><path d="M33.254 24.637c2.506 4.274 2.57 12.157.63 15.442 4.684-.57 9.35-5.188 10.373-8.287a15.332 15.332 0 012.938 9.08c0 2.84-1.576 7.24-5.885 9.437-.4-2.543-2.057-5.313-4.823-6.885-2.633 1.543-4.565 4.914-5.1 7.2-2.256-1.002-6.14-4.058-6.14-8.228 0-5.998 4.952-8.382 7.998-17.757zM30.74 16.8c.99 11.503-9.14 15.462-9.14 25.594 0 6.88 6.38 11.737 12.797 12.806-.315-2.665.543-5.236 2.132-6.75 1.554 1.4 2.267 4.514 1.525 6.742 7.07-1.37 12.797-7.053 12.797-14.32 0-6.63-3.35-12.876-9.673-16.76 1.104 4.227-.324 7.14-2.324 8.95.115-5.342-2.115-12.493-8.113-16.263z" fill="#fc0b27"/></svg>