<?xml version="1.0" encoding="utf-8"?>
<!-- Generator: Adobe Illustrator 24.0.1, SVG Export Plug-In . SVG Version: 6.00 Build 0)  -->
<svg version="1.1" id="Capa_1" xmlns="http://www.w3.org/2000/svg" xmlns:xlink="http://www.w3.org/1999/xlink" x="0px" y="0px"
	 viewBox="0 0 189.96 189.19" style="enable-background:new 0 0 189.96 189.19;" xml:space="preserve">
<style type="text/css">
	.st0{fill:#D75030;}
</style>
<g>
	<g>
		<g>
			<path class="st0" d="M48.47,55.57c-10.32-8.83-24.92-8.76-32.55,0.16c-0.13,0.16-0.27,0.32-0.4,0.49
				c-7.23,9.05-4.91,22.98,5.29,31.7c9.33,7.97,22.13,8.66,30.14,2.14c7.55,1.74,22.56,5.42,28.57,8.54
				c1.61,0.85,4.63,2.77,8.41,5.31c-0.18-2.78-0.46-6.75-0.85-11.3l-31.08-8.93C60.29,74.82,57.41,63.2,48.47,55.57z M44.49,60.22
				c7.54,6.45,9.55,16.86,4.48,23.2l-0.27,0.33c-5.42,6.35-16.15,6.12-23.9-0.51c-7.54-6.45-9.56-16.86-4.48-23.21l0.27-0.32
				C26.01,53.36,36.74,53.6,44.49,60.22z"/>
			<path class="st0" d="M58.73,12.96c-0.96,0.8-1.84,1.71-2.61,2.68c-6.48,8.11-5.61,20.67,2.08,29.87
				c7.24,8.67,18.42,11.73,27.16,8.2c5.28,14.93,7.15,52.97,7.15,52.97l66.8,75.47l3.23-1.59c0,0-58.71-87.23-60.29-94.05
				c-7.28-16.34-9.13-31.19-9.6-38.08c0.1-0.11,0.19-0.2,0.29-0.31c6.48-8.12,5.6-20.68-2.08-29.88
				C82.14,7.8,67.74,5.44,58.73,12.96z M103.5,100.93c1.61,1.29,1.87,3.63,0.58,5.25c-1.29,1.61-3.63,1.87-5.24,0.58
				c-1.61-1.28-1.87-3.64-0.59-5.24C99.54,99.91,101.89,99.64,103.5,100.93z M86.15,22.16c5.82,6.96,6.66,16.27,1.99,22.11
				c-0.52,0.65-1.11,1.26-1.75,1.79c-6.41,5.36-16.94,3.35-23.48-4.48c-5.83-6.98-6.67-16.27-2-22.11c0.52-0.65,1.12-1.26,1.75-1.79
				C69.07,12.32,79.61,14.32,86.15,22.16z"/>
			<path class="st0" d="M178.87,165.63l-2.27,2.84l-36.24-27.15c-7.28-11.04-14.85-22.66-20.99-32.35L178.87,165.63z"/>
		</g>
		<polygon class="st0" points="85.56,138.35 79.59,140.01 81.9,134.26 78.49,129.09 84.67,129.52 88.53,124.66 90.04,130.68 
			95.84,132.86 90.58,136.14 90.31,142.33 		"/>
		<polygon class="st0" points="44.62,146.24 38.65,147.89 40.96,142.14 37.55,136.98 43.73,137.41 47.59,132.55 49.1,138.56 
			54.9,140.74 49.64,144.03 49.37,150.22 		"/>
		<polygon class="st0" points="17.45,115.8 11.48,117.45 13.79,111.7 10.38,106.54 16.56,106.97 20.42,102.11 21.93,108.12 
			27.73,110.3 22.47,113.59 22.2,119.78 		"/>
	</g>
	<polygon class="st0" points="141.82,105.78 135.85,107.44 138.16,101.69 134.75,96.52 140.93,96.95 144.79,92.09 146.3,98.11 
		152.1,100.29 146.84,103.57 146.57,109.76 	"/>
	<polygon class="st0" points="166.63,127.27 162.73,128.35 164.25,124.59 162.01,121.22 166.06,121.5 168.57,118.33 169.56,122.26 
		173.35,123.68 169.91,125.83 169.74,129.87 	"/>
	<polygon class="st0" points="91.71,170.56 87.81,171.64 89.32,167.88 87.09,164.51 91.13,164.79 93.65,161.61 94.64,165.54 
		98.43,166.97 94.99,169.11 94.81,173.16 	"/>
</g>
</svg>
