<svg xmlns="http://www.w3.org/2000/svg" viewBox="0 0 57 39"><path fill="#0097a6" fill-rule="evenodd" d="M48.292 22.026c2.219-.595 4.544-.234 6.72 1.043l.984.575-.551.997c-1.533 2.773-2.998 4.802-5.168 5.695l-.889-2.16c1.156-.475 2.152-1.517 3.405-3.605-1.306-.526-2.632-.626-3.896-.289-2.01.539-3.82 2.136-5.234 4.623l-2.03-1.155c1.729-3.042 4.033-5.021 6.659-5.724zm-5.071 8.05c2.603-.176 5.073.77 7.137 2.744l.845.807-.805.845c-2.62 2.74-5.286 4.127-7.934 4.127-.129 0-.254-.002-.381-.008-2.139-.107-4.234-1.127-6.225-3.03l-.844-.808.806-.844c2.224-2.328 4.784-3.654 7.4-3.832zm-1.02 6.182c1.79.09 3.674-.76 5.614-2.526-1.357-.978-2.87-1.43-4.434-1.325-1.702.116-3.406.895-4.983 2.267 1.27.989 2.545 1.52 3.803 1.584zm12.848-25.261l1.165.077-.077 1.166c-.274 4.109-1.613 7.025-3.98 8.669l-1.332-1.918c1.53-1.062 2.488-2.964 2.856-5.663-3.892.274-6.443 3.234-6.76 7.987l-2.33-.154c.43-6.465 4.627-10.537 10.458-10.164zm-8.464 1.952l-2.222.717C42.375 7.5 44.769 2.151 50.324.36l1.112-.358.36 1.11c1.266 3.926 1.095 7.136-.505 9.54l-1.943-1.296c1.033-1.552 1.223-3.677.569-6.324-3.516 1.69-4.794 5.385-3.332 9.918zM6.826 28.176l-.889 2.16C3.768 29.444 2.302 27.415.77 24.64l-.55-.996.983-.576c2.177-1.276 4.5-1.639 6.72-1.043 2.627.703 4.93 2.683 6.66 5.724l-2.032 1.157c-1.414-2.487-3.222-4.086-5.232-4.624-1.264-.34-2.593-.237-3.897.288 1.253 2.089 2.25 3.13 3.404 3.606zm6.168 1.9c2.617.18 5.177 1.505 7.4 3.833l.807.844-.844.807c-1.991 1.904-4.086 2.924-6.225 3.031a8.247 8.247 0 01-.38.008c-2.649 0-5.315-1.386-7.935-4.127l-.806-.845.845-.807c2.065-1.974 4.527-2.92 7.138-2.743zm1.02 6.182c1.258-.064 2.533-.595 3.803-1.584-1.577-1.372-3.28-2.15-4.983-2.267-1.568-.111-3.077.348-4.434 1.325 1.94 1.766 3.835 2.615 5.614 2.526zm-9.956-15.35C1.69 19.266.352 16.35.078 12.24L0 11.074l1.166-.077c5.833-.378 10.027 3.698 10.458 10.163l-2.331.155c-.316-4.752-2.87-7.713-6.76-7.986.37 2.698 1.327 4.6 2.857 5.66l-1.332 1.92zM6.867 9.357L4.923 10.65c-1.6-2.404-1.77-5.612-.504-9.538L4.779 0 5.89.359c5.554 1.792 7.95 7.14 5.962 13.308l-2.224-.718c1.463-4.532.185-8.227-3.33-9.92-.655 2.65-.466 4.773.568 6.327zM34.6 21.099l1.534 8.558-8.024-3.789-8.028 3.813 1.533-8.585-6.483-6.774 8.962-.917 4.014-8.52 4.013 8.52 8.96.915-6.48 6.78zm-6.495 2.185l4.93 2.327-.945-5.267 4.002-4.185-5.524-.564-2.46-5.227-2.461 5.227-5.524.564 4.002 4.18-.945 5.284 4.925-2.34z"/></svg>