<svg width="106" height="12" xmlns="http://www.w3.org/2000/svg" class="_71A63zU5iHHb3zU5nQfK_0"><path d="M20.388 9.148L18 3.352h1.152L20.964 7.9l1.812-4.548h1.164l-2.388 5.796h-1.164zm4.068-2.904c0-1.68 1.212-3.036 2.904-3.036 1.74 0 2.82 1.356 2.82 3.132v.264h-4.584c.084.984.804 1.8 1.968 1.8.612 0 1.284-.24 1.716-.684l.504.708c-.576.564-1.392.864-2.328.864-1.728 0-3-1.224-3-3.048zm2.904-2.148c-1.164 0-1.716.936-1.776 1.728h3.54c-.024-.768-.54-1.728-1.764-1.728zm4.176 5.052V3.352h1.08v.888c.444-.576 1.128-1.02 1.896-1.02v1.092a1.7 1.7 0 00-.372-.036c-.54 0-1.272.408-1.524.84v4.032h-1.08zM36.12 2.38a.694.694 0 01-.696-.684c0-.384.324-.696.696-.696.384 0 .696.312.696.696a.686.686 0 01-.696.684zm-.528 6.768V3.352h1.08v5.796h-1.08zm6.876-6.768a.694.694 0 01-.696-.684c0-.384.324-.696.696-.696.384 0 .696.312.696.696a.686.686 0 01-.696.684zm-3.816 6.768V4.3h-.96v-.948h.96v-.384c0-1.248.732-1.944 1.764-1.944.372 0 .696.072.948.216l-.252.804a.938.938 0 00-.516-.132c-.54 0-.864.36-.864 1.056v.384h1.176V4.3h-1.176v4.848h-1.08zm3.288 0V3.352h1.08v5.796h-1.08zm2.436-2.904c0-1.68 1.212-3.036 2.904-3.036 1.74 0 2.82 1.356 2.82 3.132v.264h-4.584c.084.984.804 1.8 1.968 1.8.612 0 1.284-.24 1.716-.684l.504.708c-.576.564-1.392.864-2.328.864-1.728 0-3-1.224-3-3.048zm2.904-2.148c-1.164 0-1.716.936-1.776 1.728h3.54c-.024-.768-.54-1.728-1.764-1.728zm8.304 5.052V8.32c-.432.576-1.128.972-1.896.972-1.512 0-2.592-1.14-2.592-3.036 0-1.86 1.08-3.048 2.592-3.048.744 0 1.428.36 1.896.984V1.144h1.08v8.004h-1.08zm0-1.656V5.02c-.3-.468-.948-.852-1.608-.852-1.08 0-1.752.876-1.752 2.088 0 1.2.672 2.076 1.752 2.076.66 0 1.308-.372 1.608-.84zm5.904 1.656V1.144h1.08v3.048c.456-.624 1.14-.984 1.896-.984 1.512 0 2.58 1.188 2.58 3.048 0 1.896-1.08 3.036-2.58 3.036-.78 0-1.464-.396-1.896-.972v.828h-1.08zm1.08-1.656c.288.468.948.84 1.608.84 1.08 0 1.752-.864 1.752-2.076 0-1.212-.672-2.088-1.752-2.088-.66 0-1.32.396-1.608.864v2.46zm5.736 2.952c.132.06.336.096.48.096.396 0 .66-.132.84-.564l.336-.768-2.388-5.856h1.152L70.536 7.9l1.812-4.548h1.164l-2.856 6.9c-.372.912-1.008 1.236-1.848 1.248-.18 0-.504-.036-.672-.084l.168-.972zm9.204-1.296V1.144h3.372c1.644 0 2.556 1.128 2.556 2.46s-.924 2.46-2.556 2.46h-2.172v3.084h-1.2zM82.2 3.604c0-.84-.612-1.404-1.476-1.404h-2.016v2.808h2.016c.864 0 1.476-.564 1.476-1.404zm2.448 5.544V3.352h1.08v.888c.444-.576 1.128-1.02 1.896-1.02v1.092a1.7 1.7 0 00-.372-.036c-.54 0-1.272.408-1.524.84v4.032h-1.08zm6.624.144c-1.8 0-2.928-1.368-2.928-3.048 0-1.668 1.128-3.036 2.928-3.036 1.812 0 2.928 1.368 2.928 3.036 0 1.68-1.116 3.048-2.928 3.048zm0-.96c1.164 0 1.8-.984 1.8-2.088 0-1.092-.636-2.076-1.8-2.076-1.152 0-1.8.984-1.8 2.076 0 1.104.648 2.088 1.8 2.088zm6.864.96c-1.8 0-2.928-1.368-2.928-3.048 0-1.668 1.128-3.036 2.928-3.036 1.812 0 2.928 1.368 2.928 3.036 0 1.68-1.116 3.048-2.928 3.048zm0-.96c1.164 0 1.8-.984 1.8-2.088 0-1.092-.636-2.076-1.8-2.076-1.152 0-1.8.984-1.8 2.076 0 1.104.648 2.088 1.8 2.088zm4.56.816V4.3h-.96v-.948h.96v-.384c0-1.248.732-1.944 1.764-1.944.372 0 .696.072.948.216l-.252.804a1.03 1.03 0 00-.516-.132c-.54 0-.864.36-.864 1.056v.384h1.176V4.3h-1.176v4.848h-1.08zM6 12A6 6 0 116 0a6 6 0 010 12zm2.706-8.625L5.212 6.869 3.294 4.951 2.25 5.996l2.962 2.961L9.75 4.42 8.706 3.375z" fill="#0095F7" fill-rule="evenodd"/></svg>